PathFileType	4	(X/Y/Z)	C:\Git\research_data\torsion_deformities_healthy_kinematics\simulations\P01\post\Stand01\marker_experimental_HJC.trc
DataRate	CameraRate	NumFrames	NumMarkers	Units	OrigDataRate	OrigDataStartFrame	OrigNumFrames
150	150	2	231	mm	150	57	150
Frame#	Time	LFHD			LBHD			RFHD			RBHD			C7			T10			CLAV			STRN			RBAK			LSHO			LUPA			LELB			LFRA			LWRB			LWRA			LFIN			RSHO			RUPA			RELB			RFRA			RWRB			RWRA			RFIN			SACR			LASI			RASI			LT1			LT2			LT3			LS1			LS2			LS3			LHEE			LTOE			RT1			RT2			RT3			RS1			RS2			RS3			RHEE			RTOE			PELO			PELA			PELL			PELP			SACO			SACA			SACL			SACP			LFEO			LFEA			LFEL			LFEP			RFEO			RFEA			RFEL			RFEP			LTIO			LTIA			LTIL			LTIP			RTIO			RTIA			RTIL			RTIP			LFOO			LFOA			LFOL			LFOP			RFOO			RFOA			RFOL			RFOP			LTOO			LTOA			LTOL			LTOP			RTOO			RTOA			RTOL			RTOP			HEDO			HEDA			HEDL			HEDP			LCLO			LCLA			LCLL			LCLP			RCLO			RCLA			RCLL			RCLP			TRXO			TRXA			TRXL			TRXP			LHUO			LHUA			LHUL			LHUP			LRAO			LRAA			LRAL			LRAP			LHNO			LHNA			LHNL			LHNP			RHUO			RHUA			RHUL			RHUP			RRAO			RRAA			RRAL			RRAP			RHNO			RHNA			RHNL			RHNP			LPelvisAngles			RPelvisAngles			LFootProgressAngles			RFootProgressAngles			LHipAngles			RHipAngles			LKneeAngles			RKneeAngles			LAnkleAngles			RAnkleAngles			LFFootAngles			RFFootAngles			LAbsAnkleAngle			RAbsAnkleAngle			RNeckAngles			LNeckAngles			RSpineAngles			LSpineAngles			LShoulderAngles			LElbowAngles			LWristAngles			RShoulderAngles			RElbowAngles			RWristAngles			RThoraxAngles			LThoraxAngles			RHeadAngles			LHeadAngles			LHipPower			LKneePower			LAnklePower			RHipPower			RKneePower			RAnklePower			LWaistPower			RWaistPower			LNeckPower			RNeckPower			LShoulderPower			RShoulderPower			LElbowPower			RElbowPower			LWristPower			RWristPower			F_ForcePlate1			F_ForcePlate2			F_ForcePlate3			LGRF			RGRF			LHipForce			RHipForce			LKneeForce			RKneeForce			LAnkleForce			RAnkleForce			LWaistForce			RWaistForce			LNeckForce			RNeckForce			LShoulderForce			RShoulderForce			LElbowForce			RElbowForce			LWristForce			RWristForce			LNormalisedGRF			RNormalisedGRF			LGroundReactionForce			RGroundReactionForce			LHipMoment			RHipMoment			LKneeMoment			RKneeMoment			LAnkleMoment			RAnkleMoment			LWaistMoment			RWaistMoment			LNeckMoment			RNeckMoment			LShoulderMoment			RShoulderMoment			LElbowMoment			RElbowMoment			LWristMoment			RWristMoment			LKNE			RKNE			LANK			RANK			LKJC			RKJC			LAJC			RAJC			LTHI			RTHI			LTIB			RTIB			P_ForcePlate1			P_ForcePlate2			P_ForcePlate3			CentreOfMass			CentreOfMassFloor			funktRKJC			funktLKJC			funktRHIP			funktLHIP			LHJC			RHJC			LHF		
		X1	Y1	Z1	X2	Y2	Z2	X3	Y3	Z3	X4	Y4	Z4	X5	Y5	Z5	X6	Y6	Z6	X7	Y7	Z7	X8	Y8	Z8	X9	Y9	Z9	X10	Y10	Z10	X11	Y11	Z11	X12	Y12	Z12	X13	Y13	Z13	X14	Y14	Z14	X15	Y15	Z15	X16	Y16	Z16	X17	Y17	Z17	X18	Y18	Z18	X19	Y19	Z19	X20	Y20	Z20	X21	Y21	Z21	X22	Y22	Z22	X23	Y23	Z23	X24	Y24	Z24	X25	Y25	Z25	X26	Y26	Z26	X27	Y27	Z27	X28	Y28	Z28	X29	Y29	Z29	X30	Y30	Z30	X31	Y31	Z31	X32	Y32	Z32	X33	Y33	Z33	X34	Y34	Z34	X35	Y35	Z35	X36	Y36	Z36	X37	Y37	Z37	X38	Y38	Z38	X39	Y39	Z39	X40	Y40	Z40	X41	Y41	Z41	X42	Y42	Z42	X43	Y43	Z43	X44	Y44	Z44	X45	Y45	Z45	X46	Y46	Z46	X47	Y47	Z47	X48	Y48	Z48	X49	Y49	Z49	X50	Y50	Z50	X51	Y51	Z51	X52	Y52	Z52	X53	Y53	Z53	X54	Y54	Z54	X55	Y55	Z55	X56	Y56	Z56	X57	Y57	Z57	X58	Y58	Z58	X59	Y59	Z59	X60	Y60	Z60	X61	Y61	Z61	X62	Y62	Z62	X63	Y63	Z63	X64	Y64	Z64	X65	Y65	Z65	X66	Y66	Z66	X67	Y67	Z67	X68	Y68	Z68	X69	Y69	Z69	X70	Y70	Z70	X71	Y71	Z71	X72	Y72	Z72	X73	Y73	Z73	X74	Y74	Z74	X75	Y75	Z75	X76	Y76	Z76	X77	Y77	Z77	X78	Y78	Z78	X79	Y79	Z79	X80	Y80	Z80	X81	Y81	Z81	X82	Y82	Z82	X83	Y83	Z83	X84	Y84	Z84	X85	Y85	Z85	X86	Y86	Z86	X87	Y87	Z87	X88	Y88	Z88	X89	Y89	Z89	X90	Y90	Z90	X91	Y91	Z91	X92	Y92	Z92	X93	Y93	Z93	X94	Y94	Z94	X95	Y95	Z95	X96	Y96	Z96	X97	Y97	Z97	X98	Y98	Z98	X99	Y99	Z99	X100	Y100	Z100	X101	Y101	Z101	X102	Y102	Z102	X103	Y103	Z103	X104	Y104	Z104	X105	Y105	Z105	X106	Y106	Z106	X107	Y107	Z107	X108	Y108	Z108	X109	Y109	Z109	X110	Y110	Z110	X111	Y111	Z111	X112	Y112	Z112	X113	Y113	Z113	X114	Y114	Z114	X115	Y115	Z115	X116	Y116	Z116	X117	Y117	Z117	X118	Y118	Z118	X119	Y119	Z119	X120	Y120	Z120	X121	Y121	Z121	X122	Y122	Z122	X123	Y123	Z123	X124	Y124	Z124	X125	Y125	Z125	X126	Y126	Z126	X127	Y127	Z127	X128	Y128	Z128	X129	Y129	Z129	X130	Y130	Z130	X131	Y131	Z131	X132	Y132	Z132	X133	Y133	Z133	X134	Y134	Z134	X135	Y135	Z135	X136	Y136	Z136	X137	Y137	Z137	X138	Y138	Z138	X139	Y139	Z139	X140	Y140	Z140	X141	Y141	Z141	X142	Y142	Z142	X143	Y143	Z143	X144	Y144	Z144	X145	Y145	Z145	X146	Y146	Z146	X147	Y147	Z147	X148	Y148	Z148	X149	Y149	Z149	X150	Y150	Z150	X151	Y151	Z151	X152	Y152	Z152	X153	Y153	Z153	X154	Y154	Z154	X155	Y155	Z155	X156	Y156	Z156	X157	Y157	Z157	X158	Y158	Z158	X159	Y159	Z159	X160	Y160	Z160	X161	Y161	Z161	X162	Y162	Z162	X163	Y163	Z163	X164	Y164	Z164	X165	Y165	Z165	X166	Y166	Z166	X167	Y167	Z167	X168	Y168	Z168	X169	Y169	Z169	X170	Y170	Z170	X171	Y171	Z171	X172	Y172	Z172	X173	Y173	Z173	X174	Y174	Z174	X175	Y175	Z175	X176	Y176	Z176	X177	Y177	Z177	X178	Y178	Z178	X179	Y179	Z179	X180	Y180	Z180	X181	Y181	Z181	X182	Y182	Z182	X183	Y183	Z183	X184	Y184	Z184	X185	Y185	Z185	X186	Y186	Z186	X187	Y187	Z187	X188	Y188	Z188	X189	Y189	Z189	X190	Y190	Z190	X191	Y191	Z191	X192	Y192	Z192	X193	Y193	Z193	X194	Y194	Z194	X195	Y195	Z195	X196	Y196	Z196	X197	Y197	Z197	X198	Y198	Z198	X199	Y199	Z199	X200	Y200	Z200	X201	Y201	Z201	X202	Y202	Z202	X203	Y203	Z203	X204	Y204	Z204	X205	Y205	Z205	X206	Y206	Z206	X207	Y207	Z207	X208	Y208	Z208	X209	Y209	Z209	X210	Y210	Z210	X211	Y211	Z211	X212	Y212	Z212	X213	Y213	Z213	X214	Y214	Z214	X215	Y215	Z215	X216	Y216	Z216	X217	Y217	Z217	X218	Y218	Z218	X219	Y219	Z219	X220	Y220	Z220	X221	Y221	Z221	X222	Y222	Z222	X223	Y223	Z223	X224	Y224	Z224	X225	Y225	Z225	X226	Y226	Z226	X227	Y227	Z227	X228	Y228	Z228	X229	Y229	Z229	X230	Y230	Z230	X231	Y231	Z231	

57	0.373333	-334.497528	1545.652588	1297.595215	-332.670563	1521.533081	1158.312256	-461.162872	1543.155884	1304.905884	-483.565704	1518.521362	1179.063110	-400.248138	1406.486450	1147.775635	-393.095245	1226.197266	1084.726440	-406.720215	1338.757202	1265.054932	-407.851288	1302.382202	1285.560547	-507.652588	1268.011719	1075.013550	-254.046692	1379.840576	1181.324341	-145.942246	1189.235718	1151.824707	-88.602272	1113.618652	1172.251099	-42.380676	1070.316406	1193.483276	47.115402	939.500916	1269.823853	20.596210	947.602661	1333.825439	76.010269	898.677124	1351.460815	-554.475891	1368.070068	1173.816040	-622.504822	1282.109985	1154.342285	-694.346313	1093.379272	1143.164063	-818.199585	952.889160	1198.169189	-843.817749	910.668152	1216.172241	-843.767822	936.139465	1281.842896	-902.460938	884.694397	1290.729858	-393.713684	971.632812	1079.990479	-254.323731	934.356628	1266.614380	-540.534729	934.322876	1257.633301	-206.341705	643.743652	1236.768555	-191.101776	553.392761	1155.489136	-235.449783	567.194092	1291.110107	-202.895111	258.324341	1178.607788	-188.082367	179.602631	1086.597046	-227.617065	178.619232	1223.213501	-275.481964	39.340530	1091.251465	-226.288742	38.903381	1252.062256	-583.674744	661.099670	1195.892212	-555.117981	589.568359	1098.767822	-582.645142	572.338806	1238.850586	-577.101685	267.622467	1153.193726	-555.213013	202.809860	1053.156250	-571.246643	182.484085	1193.016235	-495.242340	41.244282	1085.110229	-539.816040	39.916145	1246.222412	-395.341522	848.800354	1196.870361	-395.805572	845.769043	1211.669800	-382.752808	848.801880	1197.265381	-396.148560	972.190125	1222.118652	-393.562225	959.601074	1138.794800	-393.755585	958.338013	1144.961182	-387.267883	959.601807	1138.992310	-393.965607	1021.295898	1151.419067	-281.650269	469.770203	1217.630249	-274.892517	472.531220	1255.222046	-244.300430	474.421753	1210.574341	-332.400147	848.870728	1198.909424	-498.615265	474.076569	1205.511963	-505.804810	475.904175	1242.471802	-461.830719	470.325867	1212.852905	-458.282745	848.729858	1194.831421	-266.398438	45.442249	1149.469727	-248.382752	40.710464	1182.958252	-231.478058	49.620209	1131.274048	-280.442139	436.160095	1212.231567	-505.381226	50.507854	1141.960571	-521.041321	45.381165	1177.797119	-469.185242	47.618507	1157.364380	-499.151123	440.526550	1200.478149	-227.025757	49.238865	1252.772461	-227.974793	62.547642	1253.686890	-214.275635	50.413418	1248.910400	-266.261444	55.216148	1125.058350	-539.468079	50.079987	1247.174072	-539.016968	63.256378	1248.407715	-526.692322	49.324368	1250.572754	-504.944702	60.824604	1119.788818	-214.144272	47.622871	1294.807617	-214.444016	51.825642	1295.096436	-210.117935	47.993839	1293.588135	-226.533966	49.510777	1254.476807	-550.812683	46.892288	1289.109497	-550.670227	51.053249	1289.499023	-546.778198	46.653656	1290.182739	-539.910644	50.285133	1248.882446	-409.728577	1443.560059	1127.248901	-392.538757	1484.291016	1348.745361	-184.677582	1448.808350	1108.818115	-418.199036	1665.660400	1087.064209	-257.713593	1333.061646	1178.624390	-178.915955	1318.318115	1327.047729	-244.552536	1500.956909	1188.314941	-406.285706	1340.114990	1258.201660	-546.749634	1321.789429	1171.093628	-631.462769	1299.333618	1312.420044	-519.412720	1158.040649	1161.461182	-406.285583	1340.114990	1258.201660	-406.285614	1340.114990	1258.201660	-416.684143	1307.627075	1422.182861	-573.391724	1337.647339	1247.116089	-401.719421	1175.822998	1225.941772	-120.650513	1095.210205	1170.508057	-208.795227	1053.175537	913.819336	-341.715515	964.499634	1267.824707	-257.713562	1333.061646	1178.624390	29.520771	938.169922	1300.709717	35.399666	791.214539	1116.681641	-160.103821	826.049377	1384.185791	-110.138550	1084.217407	1179.622192	95.217285	833.241760	1392.031006	207.381287	932.934143	1425.886719	177.489624	781.116394	1272.952271	29.520775	938.169922	1300.709717	-662.350647	1077.514648	1152.838379	-501.663086	1017.128784	943.314697	-847.237060	1177.766357	982.152466	-546.749634	1321.789429	1171.093628	-838.884582	918.749390	1250.809082	-779.563782	753.100830	1089.260010	-1001.929382	1007.157837	1100.287231	-674.708069	1066.401001	1159.696289	-936.258362	826.762146	1338.656250	-1059.593262	922.096252	1301.773315	-905.157043	916.818726	1467.431152	-838.884582	918.749451	1250.809082	-0.367038	1.759456	-11.564422	0.367038	-1.759456	-11.564422	-4.256871	-17.060133	-2.679620	-2.022187	-15.112726	-4.821392	7.693771	-12.067369	-14.155817	6.094417	-9.252041	-13.395610	-3.213726	-16.437267	-12.757458	-3.100000	-11.411171	-10.991522	0.641174	10.649819	-5.655739	0.303703	8.185602	-3.380619	-0.000000	0.000000	-0.000000	-0.000000	-0.000000	-0.000000	0.000000	0.000000	-9.272504	0.000000	0.000000	-8.705255	1.151062	-8.411850	21.331755	-1.151062	8.411850	21.331755	-1.221103	1.789594	0.380293	1.221103	-1.789594	0.380293	-29.081427	-29.478191	-6.204018	0.000000	0.000000	-35.155342	11.024319	123.622734	-1.610450	-26.594776	-40.720695	-7.784050	0.000000	0.000000	-34.402218	8.232671	115.818016	-7.175776	1.562214	-3.560768	-11.109104	-1.562214	3.560768	-11.109104	2.149227	4.367896	-10.255601	-2.149227	-4.367896	-10.255601	0.000000	0.000213	0.000000	-0.000000	-0.000152	-0.000000	0.000000	0.000023	0.000000	-0.000000	-0.000120	-0.000000	-0.000000	-0.000053	-0.000000	0.000000	0.000015	0.000000	0.000000	0.000517	0.000000	0.000000	0.000517	0.000000	0.000000	0.002992	0.000000	0.000000	0.002992	0.000000	-0.000000	-0.000117	-0.000000	-0.000000	-0.000010	-0.000000	0.000000	0.000009	0.000000	0.000000	0.000116	0.000000	-0.000000	-0.000008	-0.000000	0.000000	0.000025	0.000000	-398.021027	1.304700	259.089996	-231.415008	1.697000	-251.317001	-396.987000	4.582600	-949.962036	0.000000	0.000000	0.000000	0.000000	0.000000	0.000000	-0.192333	1.563657	-0.113687	0.156885	1.569686	-0.076166	-0.063204	0.590479	0.073802	0.043825	0.591672	0.077844	-0.012499	-0.006346	0.141550	0.008118	-0.011543	0.141544	-0.001675	4.459203	0.914691	-0.001675	4.459203	0.914691	-0.134222	8.844303	1.753399	-0.134222	8.844303	1.753399	0.233897	0.424994	0.074753	-0.181367	0.442220	0.109108	0.102999	0.133929	0.134625	-0.079524	0.133369	0.149623	0.019899	0.040200	-0.038238	-0.033190	0.033748	-0.034858	0.000000	0.000000	0.000000	0.000000	0.000000	0.000000	0.000000	0.000000	0.000000	0.000000	0.000000	0.000000	-58.982426	-2.542009	14.245499	-46.126476	-1.677382	5.651723	-15.074281	0.797518	10.150881	-10.374992	0.540589	11.127493	-1.303106	0.728832	7.592355	-0.934877	0.509678	7.557726	-14.190210	-2.875838	-70.490356	14.190210	2.875838	-70.490356	-77.653442	-29.602312	928.018188	77.653442	29.602312	928.018188	-57.191341	-9.868564	36.201450	-43.887234	-7.702628	45.461437	-16.492193	-0.455529	22.135017	-12.877671	-0.517225	25.226534	-1.161104	-0.000000	-2.234366	-2.019678	-0.000000	-2.115664	-226.906845	480.042389	1207.034790	-552.538696	482.227570	1194.619507	-230.562500	46.483486	1130.338257	-541.677307	47.049839	1125.604980	-281.650269	469.770203	1217.630249	-498.615265	474.076538	1205.511963	-266.549439	49.643517	1150.144531	-505.314301	54.701603	1142.589844	-194.975723	673.275147	1187.102173	-588.802673	672.655273	1178.148926	-168.659195	253.335022	1126.263916	-610.854187	254.185257	1125.007813	-398.021027	1.304700	259.089996	-231.415008	1.697000	-251.317001	-396.987000	4.582600	-949.962036	-397.892029	934.285034	1235.583008	-397.892029	0.000000	1235.583008	0.000000	0.000000	0.000000	0.000000	0.000000	0.000000	0.000000	0.000000	0.000000	0.000000	0.000000	0.000000	-293.388898	850.449822	1192.516801	-496.880974	850.425824	1186.131378	-0.192333	1.563657	-0.113687	
58	0.380000	-334.491516	1545.649292	1297.633667	-332.677826	1521.533569	1158.350464	-461.158447	1543.149536	1304.961426	-483.572113	1518.516724	1179.117920	-400.253174	1406.482300	1147.821411	-393.101746	1226.192871	1084.771606	-406.713226	1338.753540	1265.101318	-407.841797	1302.378418	1285.606323	-507.661499	1268.003418	1075.071533	-254.047730	1379.838745	1181.354248	-145.944931	1189.234497	1151.845459	-88.601967	1113.617920	1172.267212	-42.377697	1070.316040	1193.494507	47.126427	939.502197	1269.828735	20.614214	947.605164	1333.833862	76.030289	898.679993	1351.460938	-554.476868	1368.062744	1173.872437	-622.506226	1282.101929	1154.403564	-694.345337	1093.370483	1143.230347	-818.188538	952.875610	1198.255493	-843.807373	910.655457	1216.260498	-843.751465	936.126343	1281.930908	-902.443237	884.683716	1290.828857	-393.715302	971.636841	1080.046631	-254.326263	934.347351	1266.668457	-540.539429	934.318909	1257.682617	-206.348328	643.739197	1236.812378	-191.104614	553.393799	1155.519165	-235.455826	567.184753	1291.141479	-202.897308	258.323975	1178.618530	-188.084198	179.607498	1086.604370	-227.619568	178.615951	1223.220581	-275.483673	39.342426	1091.250000	-226.288956	38.903091	1252.061646	-583.679321	661.097473	1195.923462	-555.119568	589.572815	1098.794678	-582.650696	572.333740	1238.876831	-577.101746	267.623199	1153.201172	-555.210998	202.815872	1053.164063	-571.247620	182.482498	1193.021973	-495.241638	41.247215	1085.110840	-539.818298	39.914646	1246.223267	-395.345489	848.797729	1196.916870	-395.809753	845.765442	1211.716064	-382.756805	848.798950	1197.312012	-396.150482	972.185791	1222.173096	-393.563416	959.601929	1138.848022	-393.756897	958.338501	1145.014404	-387.269073	959.602539	1139.045654	-393.965942	1021.296021	1151.475952	-281.652344	469.766937	1217.645386	-274.896301	472.524597	1255.237549	-244.302414	474.419403	1210.591553	-332.404175	848.867004	1198.956787	-498.619446	474.074036	1205.533569	-505.809967	475.899414	1242.493286	-461.835053	470.322937	1212.875244	-458.286896	848.728455	1194.876831	-266.400665	45.443237	1149.470703	-248.385132	40.710331	1182.958984	-231.480408	49.621773	1131.275391	-280.444275	436.157135	1212.245361	-505.381165	50.508755	1141.965820	-521.041992	45.380604	1177.801636	-469.185577	47.619057	1157.370361	-499.155029	440.524262	1200.498413	-227.026047	49.238556	1252.771973	-227.975204	62.547310	1253.686646	-214.276031	50.413303	1248.909668	-266.264465	55.217583	1125.058838	-539.470398	50.078461	1247.175171	-539.019287	63.254822	1248.409180	-526.694702	49.322750	1250.574219	-504.943146	60.826584	1119.791382	-214.143646	47.621986	1294.806885	-214.443390	51.824749	1295.095825	-210.117340	47.992992	1293.587280	-226.534393	49.510639	1254.476318	-550.816284	46.889633	1289.110107	-550.673889	51.050598	1289.499878	-546.781860	46.651051	1290.183594	-539.912353	50.284134	1248.883911	-409.736939	1443.559082	1127.294678	-392.527008	1484.285278	1348.790405	-184.687897	1448.814819	1108.842285	-418.218201	1665.660278	1087.116089	-257.714417	1333.059814	1178.654541	-178.900299	1318.316772	1327.070679	-244.554169	1500.956421	1188.344116	-406.279236	1340.111328	1258.248047	-546.749634	1321.782349	1171.149414	-631.452698	1299.324097	1312.482422	-519.409241	1158.033447	1161.514648	-406.279205	1340.111328	1258.248047	-406.279266	1340.111328	1258.248047	-416.662659	1307.622559	1422.230957	-573.387329	1337.640015	1247.177124	-401.712280	1175.818481	1225.987061	-120.650238	1095.209229	1170.527588	-208.819885	1053.170776	913.847900	-341.704742	964.498047	1267.867554	-257.714417	1333.059814	1178.654541	29.535166	938.171814	1300.716919	35.397469	791.213806	1116.690186	-160.080536	826.050659	1384.213013	-110.137230	1084.216553	1179.640869	95.241547	833.245728	1392.027466	207.407410	932.935486	1425.868408	177.496750	781.121704	1272.940918	29.535141	938.171814	1300.716797	-662.348328	1077.506104	1152.900757	-501.688416	1017.131348	943.353149	-847.259888	1177.760620	982.244019	-546.749634	1321.782349	1171.149414	-838.870911	918.736572	1250.896729	-779.573059	753.087769	1089.333252	-1001.940857	1007.149109	1100.397827	-674.704956	1066.392212	1159.760376	-936.235901	826.753601	1338.763916	-1059.576904	922.089294	1301.892090	-905.115112	916.818359	1467.532227	-838.870972	918.736633	1250.896729	-0.366293	1.760566	-11.567925	0.366293	-1.760566	-11.567925	-4.257397	-17.061399	-2.680427	-2.021955	-15.114548	-4.822977	7.695050	-12.065742	-14.154282	6.093469	-9.252674	-13.395535	-3.215204	-16.439848	-12.754496	-3.100582	-11.410980	-10.990338	0.641145	10.648378	-5.656728	0.303733	8.185025	-3.381338	-0.000000	0.000000	-0.000000	-0.000000	-0.000000	-0.000000	0.000000	0.000000	-9.273419	0.000000	0.000000	-8.706175	1.150532	-8.412362	21.330536	-1.150532	8.412362	21.330536	-1.222275	1.783164	0.383546	1.222275	-1.783164	0.383546	-29.080645	-29.478966	-6.204589	0.000000	0.000000	-35.155464	11.023704	123.621872	-1.608825	-26.595146	-40.717426	-7.783393	0.000000	-0.000000	-34.404015	8.232336	115.815170	-7.179157	1.562479	-3.555539	-11.109398	-1.562479	3.555539	-11.109398	2.151965	4.373003	-10.254013	-2.151965	-4.373003	-10.254013	0.000000	0.000207	0.000000	-0.000000	-0.000149	-0.000000	0.000000	0.000023	0.000000	-0.000000	-0.000114	-0.000000	-0.000000	-0.000053	-0.000000	0.000000	0.000015	0.000000	0.000000	0.000525	0.000000	0.000000	0.000525	0.000000	0.000000	0.003118	0.000000	0.000000	0.003118	0.000000	-0.000000	-0.000113	-0.000000	-0.000000	-0.000023	-0.000000	0.000000	0.000009	0.000000	0.000000	0.000123	0.000000	-0.000000	-0.000007	-0.000000	0.000000	0.000025	0.000000	-398.021027	1.304700	259.089996	-231.415008	1.697000	-251.317001	-396.987000	4.582600	-949.962036	0.000000	0.000000	0.000000	0.000000	0.000000	0.000000	-0.192374	1.563662	-0.113537	0.156905	1.569687	-0.076077	-0.063216	0.590475	0.073825	0.043830	0.591668	0.077865	-0.012501	-0.006349	0.141549	0.008118	-0.011546	0.141544	-0.001590	4.459147	0.914963	-0.001590	4.459147	0.914963	-0.134413	8.844294	1.753443	-0.134413	8.844294	1.753443	0.233897	0.424993	0.074760	-0.181381	0.442223	0.109086	0.102999	0.133926	0.134628	-0.079536	0.133372	0.149617	0.019900	0.040200	-0.038237	-0.033188	0.033748	-0.034860	0.000000	0.000000	0.000000	0.000000	0.000000	0.000000	0.000000	0.000000	0.000000	0.000000	0.000000	0.000000	-58.993557	-2.542231	14.200736	-46.131287	-1.677646	5.624286	-15.077388	0.797686	10.156274	-10.376017	0.540601	11.132783	-1.303126	0.728981	7.592242	-0.934847	0.509699	7.557445	-14.185395	-2.876964	-70.585144	14.185395	2.876964	-70.585144	-77.661682	-29.618864	927.952209	77.661682	29.618864	927.952209	-57.190887	-9.868452	36.202858	-43.892906	-7.704913	45.455982	-16.492056	-0.455455	22.135496	-12.881026	-0.517303	25.225479	-1.161122	0.000000	-2.234238	-2.019534	0.000000	-2.115882	-226.908829	480.041992	1207.053223	-552.542541	482.225555	1194.640137	-230.564667	46.485302	1130.339478	-541.676819	47.051060	1125.609131	-281.652344	469.766937	1217.645386	-498.619446	474.074036	1205.533447	-266.551666	49.644463	1150.145752	-505.314239	54.702473	1142.595215	-194.978500	673.274414	1187.139771	-588.806274	672.654602	1178.180176	-168.661758	253.335800	1126.272217	-610.854858	254.185654	1125.018555	-398.021027	1.304700	259.089996	-231.415008	1.697000	-251.317001	-396.987000	4.582600	-949.962036	-397.889832	934.281677	1235.619019	-397.889832	0.000000	1235.619019	0.000000	0.000000	0.000000	0.000000	0.000000	0.000000	0.000000	0.000000	0.000000	0.000000	0.000000	0.000000	-293.392017	850.444947	1192.565462	-496.885516	850.424725	1186.176658	-0.192374	1.563662	-0.113537	
